<svg width="2324" height="577" viewBox="0 0 2324 577" fill="none" xmlns="http://www.w3.org/2000/svg">
<path d="M147.4 0H433.321C515.012 0 580.721 65.1743 580.721 146.202V429.798C580.721 510.826 515.012 576 433.321 576H147.4C65.7085 576 0 510.826 0 429.798V146.202C0 65.1743 65.7085 0 147.4 0Z" fill="#EFE7DC"/>
<path d="M153.094 264.035C106.64 260.873 78.486 255.714 48.9243 247.559C117.726 319.454 187.935 374.874 265.711 418.477C262.367 462.413 256.913 489.041 248.29 517C324.306 451.928 382.902 385.525 429.004 311.965C475.459 315.127 503.613 320.286 533.175 328.441C464.373 256.546 394.164 201.126 316.388 157.523C319.731 113.587 325.186 86.9593 333.808 59C257.792 124.072 199.197 190.475 153.094 264.035V264.035Z" fill="black"/>
<path d="M290.346 325.612C311.726 325.612 329.057 309.22 329.057 288.999C329.057 268.778 311.726 252.385 290.346 252.385C268.966 252.385 251.634 268.778 251.634 288.999C251.634 309.22 268.966 325.612 290.346 325.612Z" fill="black" stroke="#EFE7DC" stroke-width="20"/>
<path d="M895.68 361.32H811.84L798.4 401H741.12L822.4 176.36H885.76L967.04 401H909.12L895.68 361.32ZM881.6 319.08L853.76 236.84L826.24 319.08H881.6ZM1091.62 220.52C1112.52 220.52 1129.16 227.347 1141.54 241C1154.12 254.44 1160.42 273 1160.42 296.68V401H1106.02V304.04C1106.02 292.093 1102.92 282.813 1096.74 276.2C1090.55 269.587 1082.23 266.28 1071.78 266.28C1061.32 266.28 1053 269.587 1046.82 276.2C1040.63 282.813 1037.54 292.093 1037.54 304.04V401H982.817V222.44H1037.54V246.12C1043.08 238.227 1050.55 232.04 1059.94 227.56C1069.32 222.867 1079.88 220.52 1091.62 220.52ZM1217 203.88C1207.4 203.88 1199.51 201.107 1193.32 195.56C1187.35 189.8 1184.36 182.76 1184.36 174.44C1184.36 165.907 1187.35 158.867 1193.32 153.32C1199.51 147.56 1207.4 144.68 1217 144.68C1226.39 144.68 1234.07 147.56 1240.04 153.32C1246.23 158.867 1249.32 165.907 1249.32 174.44C1249.32 182.76 1246.23 189.8 1240.04 195.56C1234.07 201.107 1226.39 203.88 1217 203.88ZM1244.2 222.44V401H1189.48V222.44H1244.2ZM1502.74 220.52C1524.92 220.52 1542.52 227.24 1555.54 240.68C1568.76 254.12 1575.38 272.787 1575.38 296.68V401H1520.98V304.04C1520.98 292.52 1517.88 283.667 1511.7 277.48C1505.72 271.08 1497.4 267.88 1486.74 267.88C1476.07 267.88 1467.64 271.08 1461.46 277.48C1455.48 283.667 1452.5 292.52 1452.5 304.04V401H1398.1V304.04C1398.1 292.52 1395 283.667 1388.82 277.48C1382.84 271.08 1374.52 267.88 1363.86 267.88C1353.19 267.88 1344.76 271.08 1338.58 277.48C1332.6 283.667 1329.62 292.52 1329.62 304.04V401H1274.9V222.44H1329.62V244.84C1335.16 237.373 1342.42 231.507 1351.38 227.24C1360.34 222.76 1370.47 220.52 1381.78 220.52C1395.22 220.52 1407.16 223.4 1417.62 229.16C1428.28 234.92 1436.6 243.133 1442.58 253.8C1448.76 243.987 1457.19 235.987 1467.86 229.8C1478.52 223.613 1490.15 220.52 1502.74 220.52ZM1773.01 308.84C1773.01 313.96 1772.69 319.293 1772.05 324.84H1648.21C1649.06 335.933 1652.58 344.467 1658.77 350.44C1665.17 356.2 1672.95 359.08 1682.13 359.08C1695.78 359.08 1705.27 353.32 1710.61 341.8H1768.85C1765.86 353.533 1760.42 364.093 1752.53 373.48C1744.85 382.867 1735.14 390.227 1723.41 395.56C1711.67 400.893 1698.55 403.56 1684.05 403.56C1666.55 403.56 1650.98 399.827 1637.33 392.36C1623.67 384.893 1613.01 374.227 1605.33 360.36C1597.65 346.493 1593.81 330.28 1593.81 311.72C1593.81 293.16 1597.54 276.947 1605.01 263.08C1612.69 249.213 1623.35 238.547 1637.01 231.08C1650.66 223.613 1666.34 219.88 1684.05 219.88C1701.33 219.88 1716.69 223.507 1730.13 230.76C1743.57 238.013 1754.02 248.36 1761.49 261.8C1769.17 275.24 1773.01 290.92 1773.01 308.84ZM1717.01 294.44C1717.01 285.053 1713.81 277.587 1707.41 272.04C1701.01 266.493 1693.01 263.72 1683.41 263.72C1674.23 263.72 1666.45 266.387 1660.05 271.72C1653.86 277.053 1650.02 284.627 1648.53 294.44H1717.01ZM1847.63 358.76H1919.31V401H1792.91V176.36H1847.63V358.76ZM1963.97 203.88C1954.37 203.88 1946.48 201.107 1940.29 195.56C1934.32 189.8 1931.33 182.76 1931.33 174.44C1931.33 165.907 1934.32 158.867 1940.29 153.32C1946.48 147.56 1954.37 144.68 1963.97 144.68C1973.36 144.68 1981.04 147.56 1987.01 153.32C1993.2 158.867 1996.29 165.907 1996.29 174.44C1996.29 182.76 1993.2 189.8 1987.01 195.56C1981.04 201.107 1973.36 203.88 1963.97 203.88ZM1991.17 222.44V401H1936.45V222.44H1991.17ZM2094.51 403.56C2078.94 403.56 2065.07 400.893 2052.91 395.56C2040.75 390.227 2031.15 382.973 2024.11 373.8C2017.07 364.413 2013.12 353.96 2012.27 342.44H2066.35C2066.99 348.627 2069.87 353.64 2074.99 357.48C2080.11 361.32 2086.4 363.24 2093.87 363.24C2100.7 363.24 2105.92 361.96 2109.55 359.4C2113.39 356.627 2115.31 353.107 2115.31 348.84C2115.31 343.72 2112.64 339.987 2107.31 337.64C2101.98 335.08 2093.34 332.307 2081.39 329.32C2068.59 326.333 2057.92 323.24 2049.39 320.04C2040.86 316.627 2033.5 311.4 2027.31 304.36C2021.12 297.107 2018.03 287.4 2018.03 275.24C2018.03 265 2020.8 255.72 2026.35 247.4C2032.11 238.867 2040.43 232.147 2051.31 227.24C2062.4 222.333 2075.52 219.88 2090.67 219.88C2113.07 219.88 2130.67 225.427 2143.47 236.52C2156.48 247.613 2163.95 262.333 2165.87 280.68H2115.31C2114.46 274.493 2111.68 269.587 2106.99 265.96C2102.51 262.333 2096.54 260.52 2089.07 260.52C2082.67 260.52 2077.76 261.8 2074.35 264.36C2070.94 266.707 2069.23 270.013 2069.23 274.28C2069.23 279.4 2071.9 283.24 2077.23 285.8C2082.78 288.36 2091.31 290.92 2102.83 293.48C2116.06 296.893 2126.83 300.307 2135.15 303.72C2143.47 306.92 2150.72 312.253 2156.91 319.72C2163.31 326.973 2166.62 336.787 2166.83 349.16C2166.83 359.613 2163.84 369 2157.87 377.32C2152.11 385.427 2143.68 391.827 2132.59 396.52C2121.71 401.213 2109.02 403.56 2094.51 403.56ZM2290.87 354.6V401H2263.03C2243.19 401 2227.72 396.2 2216.63 386.6C2205.53 376.787 2199.99 360.893 2199.99 338.92V267.88H2178.23V222.44H2199.99V178.92H2254.71V222.44H2290.55V267.88H2254.71V339.56C2254.71 344.893 2255.99 348.733 2258.55 351.08C2261.11 353.427 2265.37 354.6 2271.35 354.6H2290.87Z" fill="#FD4D4D"/>
</svg>
