<svg width="2387" height="576" viewBox="0 0 2387 576" fill="none" xmlns="http://www.w3.org/2000/svg">
<path d="M147.4 0H433.321C515.012 0 580.721 65.1743 580.721 146.202V429.798C580.721 510.826 515.012 576 433.321 576H147.4C65.7085 576 0 510.826 0 429.798V146.202C0 65.1743 65.7085 0 147.4 0Z" fill="#EFE7DC"/>
<path d="M153.094 264.035C106.64 260.873 78.486 255.714 48.9243 247.559C117.726 319.454 187.935 374.874 265.711 418.477C262.367 462.413 256.913 489.041 248.29 517C324.306 451.928 382.902 385.525 429.004 311.965C475.459 315.127 503.613 320.286 533.175 328.441C464.373 256.546 394.164 201.126 316.388 157.523C319.731 113.587 325.186 86.9593 333.808 59C257.792 124.072 199.197 190.475 153.094 264.035V264.035Z" fill="black"/>
<path d="M290.346 325.612C311.726 325.612 329.057 309.22 329.057 288.999C329.057 268.778 311.726 252.385 290.346 252.385C268.966 252.385 251.634 268.778 251.634 288.999C251.634 309.22 268.966 325.612 290.346 325.612Z" fill="black" stroke="#EFE7DC" stroke-width="20"/>
<path d="M860.341 406L877.614 352.932H961.591L978.864 406H1031.59L951.364 173.273H887.955L807.614 406H860.341ZM890.114 314.523L918.75 226.455H920.568L949.205 314.523H890.114ZM1107.74 305.091C1107.86 282.591 1121.26 269.409 1140.81 269.409C1160.24 269.409 1171.95 282.136 1171.83 303.5V406H1220.24V294.864C1220.24 254.182 1196.38 229.182 1160.01 229.182C1134.11 229.182 1115.36 241.909 1107.51 262.25H1105.47V231.455H1059.33V406H1107.74V305.091ZM1259.04 406H1307.44V231.455H1259.04V406ZM1283.35 208.955C1297.79 208.955 1309.6 197.932 1309.6 184.409C1309.6 171 1297.79 159.977 1283.35 159.977C1269.04 159.977 1257.22 171 1257.22 184.409C1257.22 197.932 1269.04 208.955 1283.35 208.955ZM1346.86 406H1395.27V301.227C1395.27 281.909 1407.54 269.068 1423.68 269.068C1439.59 269.068 1450.27 279.977 1450.27 297.136V406H1497.2V299.409C1497.2 281.341 1507.54 269.068 1525.16 269.068C1540.61 269.068 1552.2 278.727 1552.2 298.159V406H1600.5V288.614C1600.5 250.773 1578 229.182 1545.5 229.182C1519.93 229.182 1500.04 242.25 1492.89 262.25H1491.07C1485.5 242.023 1467.66 229.182 1443.68 229.182C1420.16 229.182 1402.32 241.682 1395.04 262.25H1393V231.455H1346.86V406ZM1718.92 409.409C1762.11 409.409 1791.2 388.386 1798.01 356L1753.24 353.045C1748.36 366.341 1735.86 373.273 1719.72 373.273C1695.51 373.273 1680.17 357.25 1680.17 331.227V331.114H1799.04V317.818C1799.04 258.5 1763.13 229.182 1716.99 229.182C1665.63 229.182 1632.33 265.659 1632.33 319.523C1632.33 374.864 1665.17 409.409 1718.92 409.409ZM1680.17 301.114C1681.2 281.227 1696.31 265.318 1717.79 265.318C1738.81 265.318 1753.36 280.318 1753.47 301.114H1680.17ZM1832.18 406H1981.15V365.432H1881.38V173.273H1832.18V406ZM2013.47 406H2061.88V231.455H2013.47V406ZM2037.79 208.955C2052.22 208.955 2064.04 197.932 2064.04 184.409C2064.04 171 2052.22 159.977 2037.79 159.977C2023.47 159.977 2011.65 171 2011.65 184.409C2011.65 197.932 2023.47 208.955 2037.79 208.955ZM2246.53 281.227C2242.21 249.068 2216.3 229.182 2172.21 229.182C2127.55 229.182 2098.12 249.864 2098.23 283.5C2098.12 309.636 2114.59 326.568 2148.68 333.386L2178.91 339.409C2194.14 342.477 2201.07 348.045 2201.3 356.795C2201.07 367.136 2189.82 374.523 2172.89 374.523C2155.62 374.523 2144.14 367.136 2141.18 352.932L2093.57 355.432C2098.12 388.841 2126.53 409.409 2172.78 409.409C2218 409.409 2250.39 386.341 2250.5 351.909C2250.39 326.682 2233.91 311.568 2200.05 304.636L2168.46 298.273C2152.21 294.75 2146.18 289.182 2146.3 280.773C2146.18 270.318 2158 263.5 2173 263.5C2189.82 263.5 2199.82 272.705 2202.21 283.955L2246.53 281.227ZM2374.47 231.455H2341.63V189.636H2293.22V231.455H2269.35V267.818H2293.22V358.727C2292.99 392.932 2316.28 409.864 2351.4 408.386C2363.9 407.932 2372.76 405.432 2377.65 403.841L2370.03 367.818C2367.65 368.273 2362.53 369.409 2357.99 369.409C2348.33 369.409 2341.63 365.773 2341.63 352.364V267.818H2374.47V231.455Z" fill="#4D5BFE"/>
</svg>
