<svg width="581" height="576" viewBox="0 0 581 576" fill="none" xmlns="http://www.w3.org/2000/svg">
<path d="M147.4 0H433.321C515.013 0 580.721 65.1742 580.721 146.202V429.798C580.721 510.826 515.013 576 433.321 576H147.4C65.7085 576 0 510.826 0 429.798V146.202C0 65.1742 65.7085 0 147.4 0Z" fill="#EFE7DC"/>
<path d="M153.094 264.035C106.64 260.873 78.486 255.714 48.9243 247.559C117.726 319.454 187.935 374.874 265.711 418.477C262.367 462.413 256.913 489.041 248.29 517C324.306 451.928 382.902 385.525 429.004 311.965C475.459 315.127 503.613 320.286 533.175 328.441C464.373 256.546 394.164 201.126 316.388 157.523C319.731 113.587 325.186 86.9593 333.808 59C257.792 124.072 199.197 190.475 153.094 264.035Z" fill="black"/>
<path d="M290.346 325.612C311.726 325.612 329.057 309.22 329.057 288.999C329.057 268.778 311.726 252.385 290.346 252.385C268.966 252.385 251.634 268.778 251.634 288.999C251.634 309.22 268.966 325.612 290.346 325.612Z" fill="black" stroke="#EFE7DC" stroke-width="20"/>
</svg>
